<svg xmlns="http://www.w3.org/2000/svg" xmlns:xlink="http://www.w3.org/1999/xlink" version="1.1" x="0px" y="0px" viewBox="44.422996520996094 36.000667572021484 111.15399932861328 127.99832153320312" style="enable-background: new 0 0 200 200; fill: rgb(5, 55, 134);" xml:space="preserve" width="111.15399932861328" height="127.99832153320312">
    <g>
        <path d="M96.068,59.742l-0.026,37.953l-32.41,18.411c-1.901,1.079-2.566,3.495-1.486,5.395c0.729,1.283,2.067,2.004,3.445,2.004   c0.662,0,1.334-0.167,1.951-0.518l32.41-18.411l32.614,19.411c0.635,0.378,1.331,0.558,2.02,0.558c1.35,0,2.665-0.691,3.405-1.934   c1.118-1.878,0.501-4.307-1.377-5.425L103.957,97.75l0.026-38.002c0.002-2.186-1.769-3.959-3.955-3.96c-0.001,0-0.002,0-0.003,0   C97.841,55.788,96.07,57.558,96.068,59.742z"></path>
        <path d="M63.583,82.91c0.633,0.395,1.326,0.574,2.017,0.574c1.346,0,2.672-0.693,3.404-1.939c1.128-1.88,0.495-4.314-1.365-5.422   c-1.88-1.128-4.314-0.514-5.442,1.365C61.089,79.368,61.703,81.802,63.583,82.91z"></path>
        <path d="M80.779,93.16c0.633,0.377,1.326,0.555,2.018,0.555c1.345,0,2.671-0.693,3.403-1.939c1.129-1.86,0.495-4.294-1.365-5.422   c-1.88-1.108-4.314-0.495-5.442,1.386C78.285,89.618,78.898,92.032,80.779,93.16z"></path>
        <path d="M134.403,84.413c0.673,0,1.346-0.178,1.959-0.514c1.9-1.089,2.572-3.503,1.484-5.402c-1.069-1.9-3.503-2.573-5.402-1.484   c-1.9,1.069-2.553,3.482-1.484,5.402C131.693,83.682,133.038,84.413,134.403,84.413z"></path>
        <path d="M117.208,94.189c0.653,0,1.326-0.178,1.939-0.514c1.92-1.088,2.573-3.503,1.504-5.402c-1.089-1.9-3.503-2.573-5.402-1.484   c-1.9,1.069-2.573,3.482-1.484,5.382C114.497,93.457,115.823,94.189,117.208,94.189z"></path>
        <path d="M99.972,136.06c-2.177,0-3.958,1.781-3.958,3.958c0,2.196,1.781,3.958,3.958,3.958h0.02c2.177,0,3.937-1.761,3.937-3.937   C103.93,137.841,102.17,136.06,99.972,136.06z"></path>
        <path d="M99.993,116.055c-2.197,0-3.958,1.761-3.958,3.958c0,2.177,1.76,3.958,3.958,3.958c2.177,0,3.958-1.761,3.958-3.958   C103.95,117.836,102.17,116.055,99.993,116.055z"></path>
        <path d="M155.577,70.681c0-0.317-0.052-0.626-0.127-0.93c-0.021-0.088-0.052-0.17-0.079-0.256   c-0.065-0.203-0.145-0.398-0.241-0.588c-0.05-0.099-0.098-0.196-0.156-0.291c-0.144-0.236-0.309-0.459-0.499-0.663   c-0.013-0.014-0.022-0.03-0.035-0.043c-0.011-0.012-0.019-0.026-0.03-0.038c-0.229-0.229-0.487-0.426-0.765-0.589   c-0.002-0.001-0.004-0.004-0.006-0.005l-51.588-30.72c-1.222-0.728-2.742-0.744-3.98-0.041L46.454,65.839   c-0.015,0.009-0.026,0.022-0.041,0.031c-0.163,0.095-0.302,0.223-0.45,0.341c-0.159,0.127-0.315,0.252-0.451,0.4   c-0.164,0.178-0.313,0.368-0.442,0.572c-0.062,0.098-0.111,0.2-0.164,0.303c-0.098,0.189-0.179,0.384-0.246,0.586   c-0.029,0.089-0.061,0.175-0.083,0.266c-0.077,0.305-0.13,0.617-0.13,0.936c0,0.013,0.004,0.025,0.004,0.038l-0.028,60.007   c-0.001,1.395,0.733,2.688,1.932,3.402l51.589,30.722c0.054,0.032,0.115,0.043,0.17,0.072c0.21,0.112,0.427,0.205,0.654,0.277   c0.091,0.029,0.18,0.061,0.273,0.083c0.3,0.073,0.607,0.122,0.92,0.123c0.003,0,0.005,0.001,0.008,0.001c0,0,0.001,0,0.001,0   c0,0,0.001,0,0.002,0c0.309,0,0.609-0.047,0.903-0.117c0.092-0.022,0.179-0.054,0.27-0.083c0.201-0.064,0.396-0.142,0.585-0.238   c0.063-0.032,0.132-0.044,0.194-0.079l51.618-29.324c1.237-0.702,2.002-2.016,2.002-3.439l0.027-59.984   C155.571,70.718,155.577,70.7,155.577,70.681z M147.631,128.415l-47.615,27.05l-47.677-28.391l0.026-55.489l47.614-27.049   l47.675,28.39L147.631,128.415z"></path>
    </g>
</svg>