<svg xmlns="http://www.w3.org/2000/svg" xmlns:xlink="http://www.w3.org/1999/xlink" width="122.47000122070312" viewBox="3.490000009536743 7.599999904632568 122.47000122070312 33.3900032043457" overflow="visible" style="overflow: visible;">
    <path stroke="none" fill="#232323" fill-opacity="1" d="M3.49 40.66L3.49 11.26L16.84 11.26L16.84 11.26Q21.63 11.26 25.31 13.08L25.31 13.08L25.31 13.08Q28.98 14.91 31.02 18.23L31.02 18.23L31.02 18.23Q33.05 21.55 33.05 25.96L33.05 25.96L33.05 25.96Q33.05 30.37 31.02 33.68L31.02 33.68L31.02 33.68Q28.98 37.00 25.31 38.83L25.31 38.83L25.31 38.83Q21.63 40.66 16.84 40.66L16.84 40.66L3.49 40.66ZM10.29 35.07L16.51 35.07L16.51 35.07Q20.92 35.07 23.54 32.61L23.54 32.61L23.54 32.61Q26.17 30.16 26.17 25.96L26.17 25.96L26.17 25.96Q26.17 21.76 23.54 19.30L23.54 19.30L23.54 19.30Q20.92 16.84 16.51 16.84L16.51 16.84L10.29 16.84L10.29 35.07ZM37.72 40.66L37.72 18.06L44.27 18.06L44.27 40.66L37.72 40.66ZM40.99 14.91L40.99 14.91Q39.19 14.91 38.05 13.86L38.05 13.86L38.05 13.86Q36.92 12.81 36.92 11.26L36.92 11.26L36.92 11.26Q36.92 9.70 38.05 8.65L38.05 8.65L38.05 8.65Q39.19 7.60 40.99 7.60L40.99 7.60L40.99 7.60Q42.80 7.60 43.93 8.61L43.93 8.61L43.93 8.61Q45.07 9.62 45.07 11.13L45.07 11.13L45.07 11.13Q45.07 12.77 43.93 13.84L43.93 13.84L43.93 13.84Q42.80 14.91 40.99 14.91L40.99 14.91ZM72.16 40.66L64.72 40.66L59.77 33.73L54.64 40.66L47.50 40.66L56.20 29.27L47.80 18.06L55.15 18.06L59.93 24.65L64.85 18.06L71.82 18.06L63.42 29.11L72.16 40.66ZM86.10 40.99L86.10 40.99Q82.53 40.99 79.70 39.50L79.70 39.50L79.70 39.50Q76.86 38.01 75.26 35.36L75.26 35.36L75.26 35.36Q73.67 32.72 73.67 29.36L73.67 29.36L73.67 29.36Q73.67 26.00 75.26 23.35L75.26 23.35L75.26 23.35Q76.86 20.71 79.70 19.22L79.70 19.22L79.70 19.22Q82.53 17.72 86.10 17.72L86.10 17.72L86.10 17.72Q89.67 17.72 92.48 19.22L92.48 19.22L92.48 19.22Q95.30 20.71 96.89 23.35L96.89 23.35L96.89 23.35Q98.49 26.00 98.49 29.36L98.49 29.36L98.49 29.36Q98.49 32.72 96.89 35.36L96.89 35.36L96.89 35.36Q95.30 38.01 92.48 39.50L92.48 39.50L92.48 39.50Q89.67 40.99 86.10 40.99L86.10 40.99ZM86.10 35.62L86.10 35.62Q88.62 35.62 90.24 33.92L90.24 33.92L90.24 33.92Q91.85 32.21 91.85 29.36L91.85 29.36L91.85 29.36Q91.85 26.50 90.24 24.80L90.24 24.80L90.24 24.80Q88.62 23.10 86.10 23.10L86.10 23.10L86.10 23.10Q83.58 23.10 81.94 24.80L81.94 24.80L81.94 24.80Q80.30 26.50 80.30 29.36L80.30 29.36L80.30 29.36Q80.30 32.21 81.94 33.92L81.94 33.92L81.94 33.92Q83.58 35.62 86.10 35.62L86.10 35.62ZM116.59 17.72L116.59 17.72Q120.79 17.72 123.38 20.24L123.38 20.24L123.38 20.24Q125.96 22.76 125.96 27.72L125.96 27.72L125.96 40.66L119.41 40.66L119.41 28.73L119.41 28.73Q119.41 26.04 118.23 24.72L118.23 24.72L118.23 24.72Q117.05 23.39 114.83 23.39L114.83 23.39L114.83 23.39Q112.35 23.39 110.88 24.93L110.88 24.93L110.88 24.93Q109.41 26.46 109.41 29.48L109.41 29.48L109.41 40.66L102.86 40.66L102.86 18.06L109.12 18.06L109.12 20.71L109.12 20.71Q110.42 19.28 112.35 18.50L112.35 18.50L112.35 18.50Q114.28 17.72 116.59 17.72L116.59 17.72Z" transform="rotate(0 64.7250006198883 24.29500150680542)"></path>
</svg>